<?xml version="1.0" standalone="no"?><!DOCTYPE svg PUBLIC "-//W3C//DTD SVG 1.1//EN" "http://www.w3.org/Graphics/SVG/1.1/DTD/svg11.dtd"><svg t="1732700704336" class="icon" viewBox="0 0 1024 1024" version="1.1" xmlns="http://www.w3.org/2000/svg" p-id="10659" xmlns:xlink="http://www.w3.org/1999/xlink" width="200" height="200"><path d="M726.669654 971.94324c-28.37778-19.026594-57.625835-25.801085-87.710037-20.323473-30.084201 5.460547-55.322167 22.183472-75.696833 50.083454 28.394844 19.026594 57.642899 25.801085 87.710037 20.323474 30.101265-5.460547 55.339231-22.166408 75.713897-50.083455z m-190.863183-271.150288c-23.480352 25.203837-35.493556 53.598682-36.005482 85.184534-0.546055 31.585852 10.494489 60.407301 33.104567 86.430221 16.637604-17.866227 27.52457-37.353554 32.626768-58.427853-0.682568 13.531918 0.955596 26.961451 4.897428 40.271534 5.972473 20.18696 16.501091 37.541261 31.568788 52.062903a108.920849 108.920849 0 0 0-55.032076-12.422745c-30.527871 1.092109-57.762349 13.992652-81.703434 38.718691 25.562186 22.934297 53.581618 33.838327 84.126552 32.746218 30.527871-1.109174 57.762349-14.009716 81.703435-38.735755a163.731089 163.731089 0 0 0-2.610824-2.286604c14.180358-30.903283 16.876503-61.226383 8.071371-90.952236-8.941646-30.203651-28.070624-54.093544-57.352808-71.618487a150.335685 150.335685 0 0 0-10.477425 29.657596l0.187707-4.197796c0.546055-31.585852-10.494489-60.407301-33.104567-86.413156z m129.346708 108.187088c-10.409168 33.258144-9.129352 64.195556 3.788254 92.829299 12.934671 28.616679 35.084015 49.503272 66.465096 62.642713 10.409168-33.258144 9.146416-64.195556-3.788255-92.829299-12.917607-28.616679-35.06695-49.503272-66.448031-62.659777z m-204.224459 14.760541c-29.367504-8.702747-59.14455-5.119263-89.314072 10.750452 17.456686 29.964752 40.851717 49.298501 70.219222 57.984184 29.367504 8.702747 59.14455 5.119263 89.314072-10.750452-17.439622-29.964752-40.851717-49.281437-70.219222-57.984184z m-131.701568-113.203965h-5.153391a140.472572 140.472572 0 0 0-26.807873 3.327521c9.351187 33.599428 27.132093 58.530238 53.325654 74.775366a109.97883 109.97883 0 0 0 51.909325 16.62054l5.102199 0.20477a137.196244 137.196244 0 0 0 31.961264-3.327521c-9.351187-33.599428-27.132093-58.530238-53.325654-74.775365a110.234793 110.234793 0 0 0-56.99446-16.825311z m172.723928-77.91518l-5.016878 3.2422c-26.142369 17.678521-43.189514 40.817589-51.124371 69.400139-8.446784 30.374293-4.999813 61.123998 10.323847 92.317373 28.992092-18.070998 47.71153-42.285111 56.141249-72.642339 8.429719-30.374293 4.999813-61.141062-10.323847-92.317373zM283.068466 567.606798C283.699841 602.571363 294.638 631.392813 315.865876 654.105276c21.244941 22.695399 48.769511 34.981629 82.590774 36.858692-0.631376-34.964565-11.569534-63.786015-32.814475-86.498478-21.227877-22.695399-48.752446-34.981629-82.573709-36.858692z m211.101334-26.142369c-32.524383 9.692471-56.670239 28.05356-72.437569 55.117397-15.750265 27.0809-20.135767 57.711156-13.139441 91.924896 32.541447-9.692471 56.687304-28.070624 72.437569-55.117397 15.750265-27.0809 20.135767-57.711156 13.139441-91.924896z m2.098898-91.907832c-33.821263 1.245687-61.550603 13.037056-83.170957 35.357042-21.620353 22.319986-33.053374 50.936665-34.264932 85.884166 33.838327-1.262751 61.567668-13.05412 83.188021-35.374106 21.620353-22.319986 33.036309-50.936665 34.247868-85.867102zM285.389198 411.998272c-7.559445 34.060162-3.702933 64.775739 11.603662 92.129667 15.289532 27.336863 39.111168 46.158686 71.481974 56.414276 7.559445-34.060162 3.702933-64.775739-11.603663-92.129666-15.289532-27.336863-39.111168-46.158686-71.481973-56.414277z m229.598938-71.328395c-33.804199-1.808806-62.420878 7.439995-85.832974 27.712276-23.42916 20.306409-37.217041 47.779786-41.380707 82.471324 33.821263 1.808806 62.437942-7.439995 85.850037-27.72934 23.42916-20.289345 37.199977-47.779786 41.363644-82.471324zM305.644415 294.101649c-10.409168 33.258144-9.146416 64.195556 3.77119 92.8293 12.934671 28.616679 35.084015 49.503272 66.465096 62.659777 10.409168-33.275208 9.146416-64.21262-3.771191-92.8293-12.934671-28.633743-35.084015-49.520336-66.465095-62.659777z m245.280946-41.312451c-33.002181-7.849536-62.728034-3.89064-89.194623 11.893754-26.449525 15.76733-44.657036 40.373919-54.571342 73.785642 32.985117 7.849536 62.728034 3.89064 89.194623-11.893754 26.449525-15.76733 44.657036-40.373919 54.571342-73.785642zM360.727683 174.566862c-15.835586 30.886219-19.794483 61.601796-11.87669 92.112603 7.917793 30.510806 26.22769 55.066204 54.912626 73.649128 15.835586-30.903283 19.794483-61.601796 11.87669-92.129667-7.917793-30.510806-26.22769-55.04914-54.912626-73.632064z m231.680771-21.876316c-33.002181-7.849536-62.728034-3.873576-89.194623 11.893754-26.449525 15.784394-44.657036 40.373919-54.571341 73.802706 32.985117 7.849536 62.728034 3.873576 89.194622-11.893754 26.449525-15.784394 44.657036-40.373919 54.571342-73.802706zM388.388766 69.758488c-15.835586 30.886219-19.794483 61.601796-11.87669 92.112603 7.917793 30.510806 26.210626 55.066204 54.895562 73.632063 15.852651-30.886219 19.794483-61.601796 11.893754-92.112602-7.917793-30.510806-26.22769-55.04914-54.912626-73.632064zM562.06829 0.017064c-32.370805 10.272654-56.192442 29.077413-71.499038 56.431341-15.289532 27.336863-19.163107 58.05244-11.586598 92.129666 32.370805-10.272654 56.192442-29.077413 71.499037-56.43134 15.289532-27.353928 19.146043-58.05244 11.586599-92.129667z" fill="#2D2E35" p-id="10660"></path></svg>