<?xml version="1.0" standalone="no"?><!DOCTYPE svg PUBLIC "-//W3C//DTD SVG 1.1//EN" "http://www.w3.org/Graphics/SVG/1.1/DTD/svg11.dtd"><svg t="1732700663504" class="icon" viewBox="0 0 1024 1024" version="1.1" xmlns="http://www.w3.org/2000/svg" p-id="8696" xmlns:xlink="http://www.w3.org/1999/xlink" width="200" height="200"><path d="M297.268353 971.94324c28.37778-19.026594 57.625835-25.801085 87.710036-20.323473 30.084201 5.460547 55.322167 22.183472 75.696833 50.083454-28.394844 19.026594-57.642899 25.801085-87.710036 20.323474-30.101265-5.460547-55.339231-22.166408-75.713898-50.083455z m190.863182-271.150288c23.480352 25.203837 35.493556 53.598682 36.005482 85.184534 0.546055 31.585852-10.494489 60.407301-33.104566 86.430221-16.637604-17.866227-27.52457-37.353554-32.626769-58.427853 0.682568 13.531918-0.955596 26.961451-4.897428 40.271534a117.452953 117.452953 0 0 1-31.568787 52.062903 108.920849 108.920849 0 0 1 55.032075-12.422745c30.527871 1.092109 57.762349 13.992652 81.703435 38.718691-25.562186 22.934297-53.581618 33.838327-84.126553 32.746218-30.527871-1.109174-57.762349-14.009716-81.703434-38.735755l2.610824-2.286604c-14.180358-30.903283-16.876503-61.226383-8.071371-90.952236 8.941646-30.203651 28.070624-54.093544 57.352807-71.618487a150.335685 150.335685 0 0 1 10.477425 29.657596l-0.187706-4.197796c-0.546055-31.585852 10.494489-60.407301 33.104566-86.413156z m-129.346707 108.187088c10.409168 33.258144 9.129352 64.195556-3.788255 92.829299-12.934671 28.616679-35.084015 49.503272-66.465096 62.642713-10.409168-33.258144-9.146416-64.195556 3.788255-92.829299 12.917607-28.616679 35.06695-49.503272 66.448031-62.659777z m204.224458 14.760541c29.367504-8.702747 59.14455-5.119263 89.314072 10.750452-17.456686 29.964752-40.851717 49.298501-70.219222 57.984184-29.367504 8.702747-59.14455 5.119263-89.314072-10.750452 17.439622-29.964752 40.851717-49.281437 70.219222-57.984184z m131.701568-113.203965h5.153392a140.472572 140.472572 0 0 1 26.807873 3.327521c-9.351187 33.599428-27.132093 58.530238-53.325655 74.775366a109.97883 109.97883 0 0 1-51.909325 16.62054l-5.102199 0.20477a137.196244 137.196244 0 0 1-31.961264-3.327521c9.351187-33.599428 27.132093-58.530238 53.325655-74.775365a110.234793 110.234793 0 0 1 56.994459-16.825311z m-172.723927-77.91518l5.016877 3.2422c26.142369 17.678521 43.189514 40.817589 51.124372 69.400139 8.446784 30.374293 4.999813 61.123998-10.323847 92.317373-28.992092-18.070998-47.71153-42.285111-56.141249-72.642339-8.429719-30.374293-4.999813-61.141062 10.323847-92.317373z m218.882614-65.014638c-0.631376 34.964565-11.569534 63.786015-32.797411 86.498478-21.244941 22.695399-48.769511 34.981629-82.590773 36.858692 0.631376-34.964565 11.569534-63.786015 32.814474-86.498478 21.227877-22.695399 48.752446-34.981629 82.57371-36.858692zM529.768206 541.464429c32.524383 9.692471 56.670239 28.05356 72.437569 55.117397 15.750265 27.0809 20.135767 57.711156 13.139441 91.924896-32.541447-9.692471-56.687304-28.070624-72.437569-55.117397-15.750265-27.0809-20.135767-57.711156-13.139441-91.924896z m-2.098898-91.907832c33.821263 1.245687 61.550603 13.037056 83.170957 35.357042 21.620353 22.319986 33.053374 50.936665 34.264932 85.884166-33.838327-1.262751-61.567668-13.05412-83.18802-35.374106-21.620353-22.319986-33.036309-50.936665-34.247869-85.867102z m210.8795-37.558325c7.559445 34.060162 3.702933 64.775739-11.603662 92.129667-15.289532 27.336863-39.111168 46.158686-71.481973 56.414276-7.559445-34.060162-3.702933-64.775739 11.603662-92.129666 15.289532-27.336863 39.111168-46.158686 71.481973-56.414277z m-229.598937-71.328395c33.804199-1.808806 62.420878 7.439995 85.832973 27.712276 23.42916 20.306409 37.217041 47.779786 41.380708 82.471324-33.821263 1.808806-62.437942-7.439995-85.850038-27.72934-23.42916-20.289345-37.199977-47.779786-41.363643-82.471324z m209.343721-46.551163c10.409168 33.258144 9.146416 64.195556-3.771191 92.829299-12.934671 28.616679-35.084015 49.503272-66.465095 62.659777-10.409168-33.275208-9.146416-64.21262 3.77119-92.829299 12.934671-28.633743 35.084015-49.520336 66.465096-62.659777z m-245.280947-41.312451c33.002181-7.849536 62.728034-3.89064 89.194623 11.893754 26.449525 15.76733 44.657036 40.373919 54.571342 73.785641-32.985117 7.849536-62.728034 3.89064-89.194623-11.893754-26.449525-15.76733-44.657036-40.373919-54.571342-73.785641z m190.197679-78.239401c15.835586 30.886219 19.794483 61.601796 11.876689 92.112603-7.917793 30.510806-26.22769 55.066204-54.912625 73.649128-15.835586-30.903283-19.794483-61.601796-11.87669-92.129667 7.917793-30.510806 26.22769-55.04914 54.912626-73.632064zM431.529552 152.690546c33.002181-7.849536 62.728034-3.873576 89.194623 11.893754 26.449525 15.784394 44.657036 40.373919 54.571342 73.802706-32.985117 7.849536-62.728034 3.873576-89.194623-11.893754-26.449525-15.784394-44.657036-40.373919-54.571342-73.802706z m204.019688-82.932058c15.835586 30.886219 19.794483 61.601796 11.87669 92.112603-7.917793 30.510806-26.210626 55.066204-54.895562 73.632063-15.852651-30.886219-19.794483-61.601796-11.893754-92.112602 7.917793-30.510806 26.22769-55.04914 54.912626-73.632064zM461.869717 0.017064c32.370805 10.272654 56.192442 29.077413 71.499037 56.431341 15.289532 27.336863 19.163107 58.05244 11.586598 92.129666-32.370805-10.272654-56.192442-29.077413-71.499037-56.43134-15.289532-27.353928-19.146043-58.05244-11.586598-92.129667z" fill="#2D2E35" p-id="8697"></path></svg>